PathFileType	4	(X/Y/Z)	C:\Users\86182\Documents\cortex\Trimmed_M4_L15.trc
DataRate	CameraRate	NumFrames	NumMarkers	Units	OrigDataRate	OrigDataStartFrame	OrigNumFrames
100.00	100.00	       169	2	mm	100.00	541	       901
Frame#	Time	gripper			box			
		X1	Y1	Z1	X2	Y2	Z2	

541	5.400	274.49271	150.39357	292.46719	277.45679	147.24403	157.22488	
542	5.410	274.49487	150.39459	292.46753	277.45694	147.24411	157.22501	
543	5.420	274.49774	150.39595	292.46796	277.45752	147.24426	157.22575	
544	5.430	274.50101	150.39749	292.46854	277.45844	147.24460	157.22675	
545	5.440	274.50461	150.39917	292.46918	277.45941	147.24519	157.22745	
546	5.450	274.50858	150.40108	292.46964	277.46027	147.24605	157.22745	
547	5.460	274.51300	150.40327	292.46979	277.46082	147.24707	157.22662	
548	5.470	274.51761	150.40567	292.46942	277.46106	147.24811	157.22519	
549	5.480	274.52182	150.40797	292.46860	277.46115	147.24901	157.22360	
550	5.490	274.52499	150.40982	292.46747	277.46127	147.24965	157.22240	
551	5.500	274.52670	150.41093	292.46637	277.46155	147.24995	157.22197	
552	5.510	274.52695	150.41121	292.46558	277.46204	147.24989	157.22260	
553	5.520	274.52603	150.41075	292.46552	277.46262	147.24960	157.22409	
554	5.530	274.52423	150.40971	292.46613	277.46295	147.24934	157.22574	
555	5.540	274.52182	150.40833	292.46701	277.46255	147.24945	157.22668	
556	5.550	274.51923	150.40686	292.46771	277.46097	147.25009	157.22635	
557	5.560	274.51712	150.40575	292.46793	277.45795	147.25131	157.22472	
558	5.570	274.51611	150.40532	292.46753	277.45352	147.25298	157.22229	
559	5.580	274.51642	150.40569	292.46655	277.44809	147.25488	157.21976	
560	5.590	274.51740	150.40645	292.46530	277.44223	147.25679	157.21758	
561	5.600	274.51804	150.40706	292.46396	277.43695	147.25841	157.21591	
562	5.610	274.51764	150.40710	292.46277	277.43347	147.25941	157.21466	
563	5.620	274.51639	150.40665	292.46198	277.43262	147.25957	157.21381	
564	5.630	274.51489	150.40591	292.46179	277.43439	147.25882	157.21359	
565	5.640	274.51385	150.40521	292.46271	277.43817	147.25734	157.21439	
566	5.650	274.51382	150.40475	292.46478	277.44318	147.25542	157.21637	
567	5.660	274.51489	150.40466	292.46768	277.44867	147.25337	157.21936	
568	5.670	274.51685	150.40501	292.47076	277.45407	147.25153	157.22281	
569	5.680	274.51962	150.40587	292.47333	277.45892	147.25020	157.22621	
570	5.690	274.52310	150.40733	292.47470	277.46283	147.24953	157.22900	
571	5.700	274.52704	150.40935	292.47461	277.46555	147.24948	157.23068	
572	5.710	274.53088	150.41161	292.47311	277.46683	147.24998	157.23071	
573	5.720	274.53387	150.41362	292.47076	277.46664	147.25084	157.22902	
574	5.730	274.53558	150.41502	292.46823	277.46524	147.25185	157.22617	
575	5.740	274.53595	150.41565	292.46606	277.46295	147.25284	157.22275	
576	5.750	274.53506	150.41551	292.46460	277.46008	147.25372	157.21938	
577	5.760	274.53311	150.41467	292.46387	277.45694	147.25443	157.21655	
578	5.770	274.53015	150.41322	292.46368	277.45383	147.25491	157.21469	
579	5.780	274.52640	150.41133	292.46368	277.45114	147.25519	157.21384	
580	5.790	274.52216	150.40923	292.46353	277.44925	147.25517	157.21393	
581	5.800	274.51804	150.40726	292.46295	277.44858	147.25482	157.21469	
582	5.810	274.51474	150.40582	292.46198	277.44919	147.25414	157.21576	
583	5.820	274.51288	150.40515	292.46063	277.45059	147.25325	157.21667	
584	5.830	274.51260	150.40533	292.45914	277.45227	147.25235	157.21735	
585	5.840	274.51385	150.40622	292.45789	277.45395	147.25157	157.21802	
586	5.850	274.51660	150.40778	292.45715	277.45547	147.25093	157.21883	
587	5.860	274.52081	150.40997	292.45682	277.45682	147.25043	157.21960	
588	5.870	274.52603	150.41261	292.45682	277.45789	147.25003	157.22015	
589	5.880	274.53143	150.41530	292.45697	277.45859	147.24969	157.22043	
590	5.890	274.53610	150.41762	292.45721	277.45905	147.24940	157.22058	
591	5.900	274.53961	150.41934	292.45737	277.45926	147.24916	157.22076	
592	5.910	274.54190	150.42049	292.45752	277.45935	147.24892	157.22098	
593	5.920	274.54291	150.42093	292.45779	277.45932	147.24866	157.22125	
594	5.930	274.54230	150.42050	292.45831	277.45911	147.24832	157.22147	
595	5.940	274.53961	150.41898	292.45911	277.45877	147.24797	157.22153	
596	5.950	274.53479	150.41631	292.46021	277.45837	147.24774	157.22131	
597	5.960	274.52838	150.41277	292.46161	277.45807	147.24771	157.22095	
598	5.970	274.52130	150.40883	292.46332	277.45804	147.24783	157.22079	
599	5.980	274.51453	150.40504	292.46503	277.45850	147.24792	157.22147	
600	5.990	274.50897	150.40186	292.46680	277.45953	147.24786	157.22333	
601	6.000	274.50528	150.39963	292.46851	277.46103	147.24767	157.22612	
602	6.010	274.50372	150.39851	292.47012	277.46271	147.24747	157.22922	
603	6.020	274.50427	150.39850	292.47153	277.46426	147.24738	157.23187	
604	6.030	274.50665	150.39951	292.47241	277.46539	147.24751	157.23343	
605	6.040	274.51050	150.40140	292.47266	277.46597	147.24796	157.23352	
606	6.050	274.51538	150.40393	292.47232	277.46609	147.24869	157.23230	
607	6.060	274.52090	150.40685	292.47180	277.46588	147.24951	157.23039	
608	6.070	274.52679	150.40993	292.47125	277.46555	147.25015	157.22858	
609	6.080	274.53265	150.41296	292.47089	277.46515	147.25047	157.22731	
610	6.090	274.53809	150.41571	292.47083	277.46478	147.25040	157.22687	
611	6.100	274.54263	150.41795	292.47113	277.46463	147.25000	157.22746	
612	6.110	274.54599	150.41951	292.47174	277.46481	147.24947	157.22890	
613	6.120	274.54770	150.42023	292.47250	277.46524	147.24893	157.23076	
614	6.130	274.54773	150.42007	292.47324	277.46585	147.24857	157.23267	
615	6.140	274.54626	150.41924	292.47372	277.46664	147.24844	157.23428	
616	6.150	274.54367	150.41789	292.47388	277.46741	147.24858	157.23552	
617	6.160	274.54031	150.41623	292.47372	277.46790	147.24896	157.23621	
618	6.170	274.53662	150.41444	292.47333	277.46780	147.24951	157.23621	
619	6.180	274.53329	150.41292	292.47263	277.46710	147.25021	157.23553	
620	6.190	274.53143	150.41222	292.47150	277.46588	147.25090	157.23444	
621	6.200	274.53165	150.41263	292.47000	277.46463	147.25146	157.23331	
622	6.210	274.53378	150.41406	292.46844	277.46381	147.25185	157.23257	
623	6.220	274.53714	150.41600	292.46722	277.46381	147.25208	157.23248	
624	6.230	274.54086	150.41800	292.46667	277.46463	147.25217	157.23308	
625	6.240	274.54431	150.41974	292.46671	277.46606	147.25209	157.23422	
626	6.250	274.54721	150.42110	292.46722	277.46771	147.25189	157.23557	
627	6.260	274.54913	150.42189	292.46805	277.46915	147.25156	157.23679	
628	6.270	274.54974	150.42198	292.46906	277.47034	147.25105	157.23788	
629	6.280	274.54907	150.42145	292.47000	277.47125	147.25034	157.23907	
630	6.290	274.54761	150.42053	292.47076	277.47198	147.24940	157.24057	
631	6.300	274.54568	150.41943	292.47144	277.47275	147.24829	157.24249	
632	6.310	274.54379	150.41832	292.47214	277.47354	147.24718	157.24475	
633	6.320	274.54245	150.41754	292.47272	277.47440	147.24632	157.24690	
634	6.330	274.54230	150.41740	292.47296	277.47519	147.24593	157.24847	
635	6.340	274.54352	150.41808	292.47266	277.47592	147.24612	157.24927	
636	6.350	274.54608	150.41951	292.47198	277.47659	147.24698	157.24924	
637	6.360	274.54959	150.42148	292.47104	277.47699	147.24843	157.24826	
638	6.370	274.55338	150.42363	292.46994	277.47675	147.25026	157.24638	
639	6.380	274.55640	150.42538	292.46881	277.47559	147.25203	157.24371	
640	6.390	274.55750	150.42615	292.46783	277.47351	147.25337	157.24063	
641	6.400	274.55624	150.42563	292.46732	277.47107	147.25398	157.23773	
642	6.410	274.55310	150.42404	292.46738	277.46909	147.25380	157.23578	
643	6.420	274.54929	150.42197	292.46808	277.46817	147.25296	157.23547	
644	6.430	274.54614	150.42012	292.46930	277.46838	147.25171	157.23703	
645	6.440	274.54453	150.41898	292.47089	277.46948	147.25031	157.23996	
646	6.450	274.54456	150.41862	292.47256	277.47079	147.24902	157.24313	
647	6.460	274.54553	150.41882	292.47394	277.47177	147.24815	157.24536	
648	6.470	274.54648	150.41911	292.47485	277.47198	147.24796	157.24561	
649	6.480	274.54694	150.41928	292.47510	277.47131	147.24850	157.24338	
650	6.490	274.54678	150.41931	292.47464	277.46982	147.24974	157.23880	
651	6.500	274.54633	150.41934	292.47336	277.46774	147.25146	157.23257	
652	6.510	274.54596	150.41962	292.47122	277.46539	147.25336	157.22565	
653	6.520	274.54590	150.42021	292.46832	277.46301	147.25511	157.21896	
654	6.530	274.54559	150.42075	292.46503	277.46091	147.25648	157.21335	
655	6.540	274.54416	150.42065	292.46204	277.45926	147.25735	157.20944	
656	6.550	274.54108	150.41956	292.45984	277.45807	147.25769	157.20731	
657	6.560	274.53671	150.41759	292.45871	277.45731	147.25755	157.20676	
658	6.570	274.53180	150.41516	292.45850	277.45688	147.25705	157.20761	
659	6.580	274.52704	150.41263	292.45908	277.45670	147.25626	157.20953	
660	6.590	274.52292	150.41028	292.46036	277.45654	147.25526	157.21223	
661	6.600	274.51971	150.40828	292.46216	277.45621	147.25421	157.21527	
662	6.610	274.51749	150.40672	292.46417	277.45575	147.25323	157.21832	
663	6.620	274.51630	150.40572	292.46613	277.45538	147.25247	157.22113	
664	6.630	274.51627	150.40532	292.46790	277.45554	147.25200	157.22366	
665	6.640	274.51758	150.40569	292.46936	277.45660	147.25182	157.22607	
666	6.650	274.52014	150.40674	292.47046	277.45853	147.25192	157.22827	
667	6.660	274.52328	150.40819	292.47110	277.46078	147.25232	157.22989	
668	6.670	274.52597	150.40952	292.47122	277.46283	147.25296	157.23047	
669	6.680	274.52719	150.41020	292.47089	277.46429	147.25381	157.22974	
670	6.690	274.52646	150.40999	292.47012	277.46478	147.25484	157.22791	
671	6.700	274.52383	150.40894	292.46890	277.46405	147.25600	157.22537	
672	6.710	274.51984	150.40726	292.46725	277.46191	147.25725	157.22238	
673	6.720	274.51498	150.40524	292.46521	277.45837	147.25858	157.21909	
674	6.730	274.50974	150.40308	292.46289	277.45392	147.25990	157.21576	
675	6.740	274.50446	150.40089	292.46063	277.44931	147.26109	157.21274	
676	6.750	274.49948	150.39874	292.45898	277.44543	147.26195	157.21048	
677	6.760	274.49521	150.39670	292.45844	277.44312	147.26227	157.20935	
678	6.770	274.49219	150.39502	292.45911	277.44281	147.26196	157.20926	
679	6.780	274.49075	150.39397	292.46069	277.44443	147.26111	157.20969	
680	6.790	274.49109	150.39374	292.46255	277.44724	147.25986	157.21021	
681	6.800	274.49295	150.39430	292.46429	277.45032	147.25847	157.21060	
682	6.810	274.49585	150.39548	292.46567	277.45309	147.25716	157.21085	
683	6.820	274.49927	150.39703	292.46649	277.45529	147.25609	157.21085	
684	6.830	274.50272	150.39871	292.46680	277.45685	147.25542	157.21069	
685	6.840	274.50577	150.40028	292.46664	277.45789	147.25516	157.21048	
686	6.850	274.50809	150.40157	292.46616	277.45859	147.25526	157.21021	
687	6.860	274.50946	150.40240	292.46552	277.45895	147.25565	157.20987	
688	6.870	274.50967	150.40259	292.46506	277.45914	147.25607	157.20959	
689	6.880	274.50858	150.40202	292.46515	277.45926	147.25639	157.20959	
690	6.890	274.50635	150.40074	292.46591	277.45935	147.25647	157.20993	
691	6.900	274.50342	150.39902	292.46704	277.45935	147.25626	157.21051	
692	6.910	274.50040	150.39725	292.46817	277.45923	147.25581	157.21112	
693	6.920	274.49783	150.39577	292.46906	277.45892	147.25523	157.21155	
694	6.930	274.49628	150.39491	292.46936	277.45847	147.25475	157.21144	
695	6.940	274.49588	150.39479	292.46896	277.45776	147.25458	157.21045	
696	6.950	274.49646	150.39536	292.46771	277.45685	147.25490	157.20831	
697	6.960	274.49762	150.39638	292.46564	277.45572	147.25572	157.20514	
698	6.970	274.49893	150.39763	292.46289	277.45459	147.25696	157.20132	
699	6.980	274.50024	150.39894	292.45981	277.45358	147.25838	157.19748	
700	6.990	274.50140	150.40016	292.45679	277.45291	147.25969	157.19440	
701	7.000	274.50253	150.40129	292.45419	277.45270	147.26065	157.19269	
702	7.010	274.50369	150.40228	292.45233	277.45300	147.26114	157.19254	
703	7.020	274.50473	150.40298	292.45145	277.45361	147.26114	157.19373	
704	7.030	274.50540	150.40326	292.45178	277.45444	147.26071	157.19583	
705	7.040	274.50571	150.40311	292.45325	277.45529	147.25996	157.19856	
706	7.050	274.50580	150.40269	292.45538	277.45609	147.25897	157.20148	
707	7.060	274.50595	150.40233	292.45752	277.45667	147.25790	157.20413	
708	7.070	274.50644	150.40225	292.45895	277.45697	147.25694	157.20615	
709	7.080	274.50745	150.40266	292.45941	277.45706	147.25618	157.20743	
